PsfTest-BoldItalic.ufo
<glyph name="ExclamationMrk" format="2">
  <advance width="760"/>
  <unicode hex="0021"/>
  <outline>
    <contour>
      <point x="593" y="495" type="line"/>
      <point x="670" y="782"/>
      <point x="736" y="1065"/>
      <point x="882" y="1495" type="curve"/>
      <point x="547" y="1495" type="line"/>
      <point x="478" y="1065"/>
      <point x="402" y="782"/>
      <point x="338" y="495" type="curve"/>
    </contour>
    <contour>
      <point x="201" y="116" type="curve" smooth="yes"/>
      <point x="201" y="35"/>
      <point x="262" y="-25"/>
      <point x="348" y="-25" type="curve" smooth="yes"/>
      <point x="466" y="-25"/>
      <point x="561" y="71"/>
      <point x="561" y="181" type="curve" smooth="yes"/>
      <point x="561" y="261"/>
      <point x="502" y="322"/>
      <point x="415" y="322" type="curve" smooth="yes"/>
      <point x="298" y="322"/>
      <point x="201" y="226"/>
    </contour>
  </outline>
</glyph>
<glyph name="QuotMrk" format="2">
  <advance width="1065"/>
  <unicode hex="0022"/>
  <outline>
    <contour>
      <point x="648" y="1035" type="line"/>
      <point x="687" y="1174"/>
      <point x="726" y="1326"/>
      <point x="816" y="1569" type="curve"/>
      <point x="571" y="1569" type="line"/>
      <point x="541" y="1326"/>
      <point x="503" y="1174"/>
      <point x="473" y="1035" type="curve"/>
    </contour>
    <contour>
      <point x="1008" y="1035" type="line"/>
      <point x="1047" y="1174"/>
      <point x="1086" y="1326"/>
      <point x="1176" y="1569" type="curve"/>
      <point x="931" y="1569" type="line"/>
      <point x="901" y="1326"/>
      <point x="863" y="1174"/>
      <point x="833" y="1035" type="curve"/>
    </contour>
  </outline>
</glyph>
<glyph name="NumSgn" format="2">
  <advance width="1180"/>
  <unicode hex="0023"/>
  <outline>
    <contour>
      <point x="667" y="1346" type="line"/>
      <point x="16" y="99" type="line"/>
      <point x="256" y="99" type="line"/>
      <point x="907" y="1346" type="line"/>
    </contour>
    <contour>
      <point x="54" y="421" type="line"/>
      <point x="1145" y="421" type="line"/>
      <point x="1197" y="629" type="line"/>
      <point x="106" y="629" type="line"/>
    </contour>
    <contour>
      <point x="218" y="841" type="line"/>
      <point x="1309" y="841" type="line"/>
      <point x="1361" y="1049" type="line"/>
      <point x="270" y="1049" type="line"/>
    </contour>
    <contour>
      <point x="1142" y="1346" type="line"/>
      <point x="491" y="99" type="line"/>
      <point x="731" y="99" type="line"/>
      <point x="1382" y="1346" type="line"/>
    </contour>
  </outline>
</glyph>
<glyph name="DollarSgn" format="2">
  <advance width="1180"/>
  <unicode hex="0024"/>
  <outline>
    <contour>
      <point x="879" y="1584" type="line"/>
      <point x="679" y="780" type="line"/>
      <point x="634" y="719" type="line"/>
      <point x="400" y="-218" type="line"/>
      <point x="576" y="-218" type="line"/>
      <point x="795" y="661" type="line"/>
      <point x="842" y="727" type="line"/>
      <point x="1055" y="1584" type="line"/>
    </contour>
    <contour>
      <point x="1250" y="1303" type="line"/>
      <point x="1145" y="1355"/>
      <point x="1026" y="1375"/>
      <point x="885" y="1375" type="curve" smooth="yes"/>
      <point x="537" y="1375"/>
      <point x="345" y="1216"/>
      <point x="345" y="984" type="curve" smooth="yes"/>
      <point x="345" y="841"/>
      <point x="441" y="726"/>
      <point x="638" y="622" type="curve" smooth="yes"/>
      <point x="832" y="519"/>
      <point x="881" y="451"/>
      <point x="881" y="381" type="curve" smooth="yes"/>
      <point x="881" y="274"/>
      <point x="817" y="209"/>
      <point x="613" y="209" type="curve" smooth="yes"/>
      <point x="462" y="209"/>
      <point x="336" y="298"/>
      <point x="259" y="389" type="curve"/>
      <point x="133" y="143" type="line"/>
      <point x="243" y="56"/>
      <point x="378" y="0"/>
      <point x="566" y="0" type="curve" smooth="yes"/>
      <point x="879" y="0"/>
      <point x="1120" y="142"/>
      <point x="1120" y="396" type="curve" smooth="yes"/>
      <point x="1120" y="562"/>
      <point x="1028" y="682"/>
      <point x="817" y="803" type="curve" smooth="yes"/>
      <point x="635" y="908"/>
      <point x="592" y="958"/>
      <point x="592" y="1016" type="curve" smooth="yes"/>
      <point x="592" y="1113"/>
      <point x="649" y="1176"/>
      <point x="826" y="1176" type="curve" smooth="yes"/>
      <point x="954" y="1176"/>
      <point x="1048" y="1135"/>
      <point x="1134" y="1066" type="curve"/>
    </contour>
  </outline>
</glyph>
<glyph name="Ampersand" format="2">
  <advance width="1333"/>
  <unicode hex="0026"/>
  <outline>
    <contour>
      <point x="1146" y="594" type="line"/>
      <point x="1040" y="429"/>
      <point x="712" y="198"/>
      <point x="537" y="198" type="curve" smooth="yes"/>
      <point x="437" y="198"/>
      <point x="363" y="257"/>
      <point x="363" y="345" type="curve" smooth="yes"/>
      <point x="363" y="490"/>
      <point x="474" y="535"/>
      <point x="695" y="693" type="curve" smooth="yes"/>
      <point x="940" y="868"/>
      <point x="1160" y="1032"/>
      <point x="1160" y="1213" type="curve" smooth="yes"/>
      <point x="1160" y="1361"/>
      <point x="1026" y="1470"/>
      <point x="849" y="1470" type="curve" smooth="yes"/>
      <point x="637" y="1470"/>
      <point x="414" y="1364"/>
      <point x="414" y="1124" type="curve" smooth="yes"/>
      <point x="414" y="968"/>
      <point x="552" y="751"/>
      <point x="661" y="535" type="curve" smooth="yes"/>
      <point x="842" y="177"/>
      <point x="969" y="-25"/>
      <point x="1021" y="-25" type="curve" smooth="yes"/>
      <point x="1056" y="-25"/>
      <point x="1205" y="57"/>
      <point x="1250" y="89" type="curve"/>
      <point x="1165" y="129"/>
      <point x="1073" y="302"/>
      <point x="890" y="673" type="curve" smooth="yes"/>
      <point x="788" y="881"/>
      <point x="651" y="1063"/>
      <point x="651" y="1163" type="curve" smooth="yes"/>
      <point x="651" y="1245"/>
      <point x="729" y="1307"/>
      <point x="803" y="1307" type="curve" smooth="yes"/>
      <point x="873" y="1307"/>
      <point x="926" y="1250"/>
      <point x="926" y="1184" type="curve" smooth="yes"/>
      <point x="926" y="1081"/>
      <point x="821" y="997"/>
      <point x="600" y="832" type="curve" smooth="yes"/>
      <point x="392" y="677"/>
      <point x="108" y="540"/>
      <point x="108" y="268" type="curve" smooth="yes"/>
      <point x="108" y="98"/>
      <point x="229" y="-25"/>
      <point x="466" y="-25" type="curve" smooth="yes"/>
      <point x="749" y="-25"/>
      <point x="1120" y="261"/>
      <point x="1237" y="421" type="curve"/>
    </contour>
  </outline>
</glyph>
<glyph name="Apos" format="2">
  <advance width="605"/>
  <unicode hex="0027"/>
  <outline>
    <contour>
      <point x="598" y="1035" type="line"/>
      <point x="637" y="1174"/>
      <point x="676" y="1326"/>
      <point x="766" y="1569" type="curve"/>
      <point x="521" y="1569" type="line"/>
      <point x="491" y="1326"/>
      <point x="453" y="1174"/>
      <point x="423" y="1035" type="curve"/>
    </contour>
  </outline>
</glyph>
<glyph name="PlusSgn" format="2">
  <advance width="1180"/>
  <unicode hex="002B"/>
  <outline>
    <contour>
      <point x="722" y="1168" type="line"/>
      <point x="500" y="282" type="line"/>
      <point x="715" y="282" type="line"/>
      <point x="936" y="1168" type="line"/>
    </contour>
    <contour>
      <point x="250" y="624" type="line"/>
      <point x="1140" y="624" type="line"/>
      <point x="1192" y="832" type="line"/>
      <point x="302" y="832" type="line"/>
    </contour>
  </outline>
</glyph>
<glyph name="Comma" format="2">
  <advance width="645"/>
  <unicode hex="002C"/>
  <outline>
    <contour>
      <point x="137" y="49" type="line"/>
      <point x="297" y="49" type="line"/>
      <point x="276" y="-34"/>
      <point x="192" y="-151"/>
      <point x="59" y="-262" type="curve"/>
      <point x="187" y="-332" type="line"/>
      <point x="337" y="-222"/>
      <point x="539" y="-11"/>
      <point x="539" y="165" type="curve" smooth="yes"/>
      <point x="539" y="262"/>
      <point x="495" y="337"/>
      <point x="379" y="337" type="curve" smooth="yes"/>
      <point x="266" y="337"/>
      <point x="187" y="252"/>
      <point x="169" y="178" type="curve" smooth="yes"/>
    </contour>
  </outline>
</glyph>
<glyph name="FullStop" format="2">
  <advance width="690"/>
  <unicode hex="002E"/>
  <outline>
    <contour>
      <point x="171" y="116" type="curve" smooth="yes"/>
      <point x="171" y="35"/>
      <point x="232" y="-25"/>
      <point x="318" y="-25" type="curve" smooth="yes"/>
      <point x="436" y="-25"/>
      <point x="531" y="71"/>
      <point x="531" y="181" type="curve" smooth="yes"/>
      <point x="531" y="261"/>
      <point x="472" y="322"/>
      <point x="385" y="322" type="curve" smooth="yes"/>
      <point x="268" y="322"/>
      <point x="171" y="226"/>
    </contour>
  </outline>
</glyph>
<glyph name="DigitZero" format="2">
  <advance width="1180"/>
  <unicode hex="0030"/>
  <anchor x="520" y="-100" name="L"/>
  <anchor x="927" y="1530" name="U"/>
  <outline>
    <contour>
      <point x="959" y="683" type="curve" smooth="yes"/>
      <point x="873" y="339"/>
      <point x="762" y="203"/>
      <point x="600" y="203" type="curve" smooth="yes"/>
      <point x="469" y="203"/>
      <point x="432" y="294"/>
      <point x="432" y="454" type="curve" smooth="yes"/>
      <point x="432" y="537"/>
      <point x="447" y="630"/>
      <point x="478" y="755" type="curve" smooth="yes"/>
      <point x="564" y="1099"/>
      <point x="676" y="1242"/>
      <point x="839" y="1242" type="curve" smooth="yes"/>
      <point x="971" y="1242"/>
      <point x="1010" y="1140"/>
      <point x="1010" y="992" type="curve" smooth="yes"/>
      <point x="1010" y="907"/>
      <point x="991" y="811"/>
    </contour>
    <contour>
      <point x="1246" y="689" type="curve" smooth="yes"/>
      <point x="1281" y="828"/>
      <point x="1298" y="927"/>
      <point x="1298" y="1028" type="curve" smooth="yes"/>
      <point x="1298" y="1317"/>
      <point x="1158" y="1470"/>
      <point x="906" y="1470" type="curve" smooth="yes"/>
      <point x="587" y="1470"/>
      <point x="329" y="1302"/>
      <point x="190" y="745" type="curve" smooth="yes"/>
      <point x="157" y="611"/>
      <point x="141" y="516"/>
      <point x="141" y="420" type="curve" smooth="yes"/>
      <point x="141" y="131"/>
      <point x="292" y="-25"/>
      <point x="533" y="-25" type="curve" smooth="yes"/>
      <point x="854" y="-25"/>
      <point x="1103" y="115"/>
    </contour>
  </outline>
</glyph>
<glyph name="DigitEight" format="2">
  <advance width="1180"/>
  <unicode hex="0038"/>
  <anchor x="515" y="-100" name="L"/>
  <anchor x="922" y="1530" name="U"/>
  <outline>
    <contour>
      <point x="543" y="-25" type="curve" smooth="yes"/>
      <point x="860" y="-25"/>
      <point x="1182" y="176"/>
      <point x="1182" y="498" type="curve" smooth="yes"/>
      <point x="1182" y="642"/>
      <point x="1090" y="742"/>
      <point x="1011" y="787" type="curve"/>
      <point x="1159" y="866"/>
      <point x="1279" y="994"/>
      <point x="1279" y="1163" type="curve" smooth="yes"/>
      <point x="1279" y="1342"/>
      <point x="1123" y="1470"/>
      <point x="906" y="1470" type="curve" smooth="yes"/>
      <point x="632" y="1470"/>
      <point x="349" y="1310"/>
      <point x="349" y="1028" type="curve" smooth="yes"/>
      <point x="349" y="904"/>
      <point x="412" y="821"/>
      <point x="466" y="787" type="curve"/>
      <point x="270" y="703"/>
      <point x="108" y="563"/>
      <point x="108" y="341" type="curve" smooth="yes"/>
      <point x="108" y="123"/>
      <point x="301" y="-25"/>
    </contour>
    <contour>
      <point x="760" y="886" type="curve" smooth="yes"/>
      <point x="651" y="886"/>
      <point x="593" y="939"/>
      <point x="593" y="1038" type="curve" smooth="yes"/>
      <point x="593" y="1175"/>
      <point x="721" y="1277"/>
      <point x="858" y="1277" type="curve" smooth="yes"/>
      <point x="976" y="1277"/>
      <point x="1028" y="1221"/>
      <point x="1028" y="1127" type="curve" smooth="yes"/>
      <point x="1028" y="993"/>
      <point x="898" y="886"/>
    </contour>
    <contour>
      <point x="595" y="183" type="curve" smooth="yes"/>
      <point x="458" y="183"/>
      <point x="375" y="267"/>
      <point x="375" y="384" type="curve" smooth="yes"/>
      <point x="375" y="549"/>
      <point x="549" y="673"/>
      <point x="707" y="673" type="curve" smooth="yes"/>
      <point x="833" y="673"/>
      <point x="920" y="602"/>
      <point x="920" y="477" type="curve" smooth="yes"/>
      <point x="920" y="317"/>
      <point x="759" y="183"/>
    </contour>
  </outline>
</glyph>
<glyph name="DigitNine" format="2">
  <advance width="1180"/>
  <unicode hex="0039"/>
  <anchor x="515" y="-100" name="L"/>
  <anchor x="922" y="1530" name="U"/>
  <outline>
    <contour>
      <point x="119" y="84" type="line"/>
      <point x="199" y="25"/>
      <point x="327" y="-25"/>
      <point x="455" y="-25" type="curve" smooth="yes"/>
      <point x="979" y="-25"/>
      <point x="1289" y="533"/>
      <point x="1289" y="979" type="curve" smooth="yes"/>
      <point x="1289" y="1248"/>
      <point x="1164" y="1470"/>
      <point x="833" y="1470" type="curve" smooth="yes"/>
      <point x="554" y="1470"/>
      <point x="255" y="1239"/>
      <point x="255" y="932" type="curve" smooth="yes"/>
      <point x="255" y="736"/>
      <point x="399" y="570"/>
      <point x="644" y="570" type="curve" smooth="yes"/>
      <point x="833" y="570"/>
      <point x="1027" y="700"/>
      <point x="1164" y="859" type="curve"/>
      <point x="1123" y="981" type="line"/>
      <point x="1021" y="868"/>
      <point x="863" y="782"/>
      <point x="728" y="782" type="curve" smooth="yes"/>
      <point x="589" y="782"/>
      <point x="519" y="845"/>
      <point x="519" y="955" type="curve" smooth="yes"/>
      <point x="519" y="1133"/>
      <point x="653" y="1237"/>
      <point x="801" y="1237" type="curve" smooth="yes"/>
      <point x="951" y="1237"/>
      <point x="1029" y="1136"/>
      <point x="1029" y="965" type="curve" smooth="yes"/>
      <point x="1029" y="476"/>
      <point x="710" y="208"/>
      <point x="513" y="208" type="curve" smooth="yes"/>
      <point x="417" y="208"/>
      <point x="301" y="252"/>
      <point x="237" y="337" type="curve"/>
    </contour>
  </outline>
</glyph>
<glyph name="Semicolon" format="2">
  <advance width="690"/>
  <unicode hex="003B"/>
  <outline>
    <contour>
      <point x="137" y="49" type="line"/>
      <point x="297" y="49" type="line"/>
      <point x="276" y="-34"/>
      <point x="192" y="-151"/>
      <point x="59" y="-262" type="curve"/>
      <point x="187" y="-332" type="line"/>
      <point x="337" y="-222"/>
      <point x="539" y="-11"/>
      <point x="539" y="165" type="curve" smooth="yes"/>
      <point x="539" y="262"/>
      <point x="495" y="337"/>
      <point x="379" y="337" type="curve" smooth="yes"/>
      <point x="266" y="337"/>
      <point x="187" y="252"/>
      <point x="169" y="178" type="curve" smooth="yes"/>
    </contour>
    <contour>
      <point x="319" y="710" type="curve" smooth="yes"/>
      <point x="319" y="629"/>
      <point x="380" y="569"/>
      <point x="466" y="569" type="curve" smooth="yes"/>
      <point x="584" y="569"/>
      <point x="679" y="665"/>
      <point x="679" y="775" type="curve" smooth="yes"/>
      <point x="679" y="855"/>
      <point x="620" y="916"/>
      <point x="533" y="916" type="curve" smooth="yes"/>
      <point x="416" y="916"/>
      <point x="319" y="820"/>
    </contour>
  </outline>
</glyph>
<glyph name="LTSgn" format="2">
  <advance width="1180"/>
  <unicode hex="003C"/>
  <outline>
    <contour>
      <point x="1127" y="470" type="line"/>
      <point x="510" y="713" type="line"/>
      <point x="1253" y="975" type="line"/>
      <point x="1309" y="1203" type="line"/>
      <point x="253" y="817" type="line"/>
      <point x="206" y="629" type="line"/>
      <point x="1070" y="243" type="line"/>
    </contour>
  </outline>
</glyph>
<glyph name="EqSgn" format="2">
  <advance width="1180"/>
  <unicode hex="003D"/>
  <outline>
    <contour>
      <point x="168" y="436" type="line"/>
      <point x="1128" y="436" type="line"/>
      <point x="1180" y="643" type="line"/>
      <point x="220" y="643" type="line"/>
    </contour>
    <contour>
      <point x="259" y="802" type="line"/>
      <point x="1219" y="802" type="line"/>
      <point x="1271" y="1010" type="line"/>
      <point x="311" y="1010" type="line"/>
    </contour>
  </outline>
</glyph>
<glyph name="GTSgn" format="2">
  <advance width="1180"/>
  <unicode hex="003E"/>
  <outline>
    <contour>
      <point x="130" y="243" type="line"/>
      <point x="1186" y="629" type="line"/>
      <point x="1233" y="817" type="line"/>
      <point x="369" y="1203" type="line"/>
      <point x="313" y="975" type="line"/>
      <point x="930" y="733" type="line"/>
      <point x="187" y="470" type="line"/>
    </contour>
  </outline>
</glyph>
<glyph name="LtnCapD" format="2">
  <advance width="1465"/>
  <unicode hex="0044"/>
  <anchor x="690" y="-100" name="L"/>
  <anchor x="1122" y="1530" name="U"/>
  <outline>
    <contour>
      <point x="217" y="450" type="line" smooth="yes"/>
      <point x="167" y="251"/>
      <point x="124" y="79"/>
      <point x="90" y="0" type="curve"/>
      <point x="90" y="0"/>
      <point x="431" y="-10"/>
      <point x="566" y="-10" type="curve" smooth="yes"/>
      <point x="1036" y="-10"/>
      <point x="1361" y="195"/>
      <point x="1471" y="648" type="curve" smooth="yes"/>
      <point x="1494" y="742"/>
      <point x="1505" y="827"/>
      <point x="1505" y="902" type="curve" smooth="yes"/>
      <point x="1505" y="1325"/>
      <point x="1172" y="1455"/>
      <point x="912" y="1455" type="curve" smooth="yes"/>
      <point x="769" y="1455"/>
      <point x="540" y="1451"/>
      <point x="450" y="1445" type="curve"/>
      <point x="445" y="1371"/>
      <point x="404" y="1205"/>
      <point x="359" y="1024" type="curve" smooth="yes"/>
    </contour>
    <contour>
      <point x="696" y="1229" type="line"/>
      <point x="738" y="1231"/>
      <point x="809" y="1234"/>
      <point x="864" y="1234" type="curve" smooth="yes"/>
      <point x="1077" y="1234"/>
      <point x="1212" y="1104"/>
      <point x="1212" y="871" type="curve" smooth="yes"/>
      <point x="1212" y="805"/>
      <point x="1201" y="731"/>
      <point x="1181" y="647" type="curve" smooth="yes"/>
      <point x="1108" y="346"/>
      <point x="930" y="219"/>
      <point x="647" y="219" type="curve" smooth="yes"/>
      <point x="568" y="219"/>
      <point x="485" y="225"/>
      <point x="447" y="229" type="curve"/>
    </contour>
  </outline>
</glyph>
<glyph name="LtnCapG" format="2">
  <advance width="1452"/>
  <unicode hex="0047"/>
  <anchor x="747" y="0" name="H"/>
  <anchor x="722" y="-100" name="L"/>
  <anchor x="1129" y="1530" name="U"/>
  <outline>
    <contour>
      <point x="1480" y="767" type="line"/>
      <point x="910" y="767" type="line"/>
      <point x="855" y="544" type="line"/>
      <point x="1170" y="544" type="line"/>
      <point x="1104" y="271" type="line"/>
      <point x="1015" y="231"/>
      <point x="916" y="218"/>
      <point x="805" y="218" type="curve" smooth="yes"/>
      <point x="593" y="218"/>
      <point x="475" y="352"/>
      <point x="475" y="567" type="curve" smooth="yes"/>
      <point x="475" y="633"/>
      <point x="484" y="708"/>
      <point x="505" y="789" type="curve" smooth="yes"/>
      <point x="581" y="1079"/>
      <point x="802" y="1230"/>
      <point x="1067" y="1230" type="curve" smooth="yes"/>
      <point x="1220" y="1230"/>
      <point x="1334" y="1193"/>
      <point x="1449" y="1096" type="curve"/>
      <point x="1594" y="1332" type="line"/>
      <point x="1447" y="1437"/>
      <point x="1275" y="1470"/>
      <point x="1094" y="1470" type="curve" smooth="yes"/>
      <point x="709" y="1470"/>
      <point x="345" y="1257"/>
      <point x="227" y="783" type="curve" smooth="yes"/>
      <point x="205" y="694"/>
      <point x="194" y="611"/>
      <point x="194" y="534" type="curve" smooth="yes"/>
      <point x="194" y="176"/>
      <point x="419" y="-25"/>
      <point x="768" y="-25" type="curve" smooth="yes"/>
      <point x="940" y="-25"/>
      <point x="1105" y="10"/>
      <point x="1325" y="133" type="curve"/>
    </contour>
  </outline>
</glyph>
<glyph name="LtnCapI" format="2">
  <advance width="1025"/>
  <unicode hex="0049"/>
  <anchor x="460" y="0" name="H"/>
  <anchor x="431" y="-100" name="L"/>
  <anchor x="652" y="0" name="O"/>
  <anchor x="1254" y="1200" name="R"/>
  <anchor x="842" y="1530" name="U"/>
  <outline>
    <contour>
      <point x="430" y="1445" type="line"/>
      <point x="379" y="1242" type="line"/>
      <point x="619" y="1242" type="line"/>
      <point x="360" y="203" type="line"/>
      <point x="120" y="203" type="line"/>
      <point x="70" y="0" type="line"/>
      <point x="835" y="0" type="line"/>
      <point x="885" y="203" type="line"/>
      <point x="645" y="203" type="line"/>
      <point x="904" y="1242" type="line"/>
      <point x="1144" y="1242" type="line"/>
      <point x="1195" y="1445" type="line"/>
    </contour>
  </outline>
</glyph>
<glyph name="LtnCapP" format="2">
  <advance width="1255"/>
  <unicode hex="0050"/>
  <anchor x="600" y="-100" name="L"/>
  <anchor x="970" y="1530" name="U"/>
  <outline>
    <contour>
      <point x="519" y="518" type="line"/>
      <point x="582" y="511"/>
      <point x="661" y="508"/>
      <point x="734" y="508" type="curve" smooth="yes"/>
      <point x="1118" y="508"/>
      <point x="1393" y="718"/>
      <point x="1393" y="1076" type="curve" smooth="yes"/>
      <point x="1393" y="1306"/>
      <point x="1215" y="1455"/>
      <point x="940" y="1455" type="curve" smooth="yes"/>
      <point x="727" y="1455"/>
      <point x="450" y="1445"/>
      <point x="450" y="1445" type="curve"/>
      <point x="445" y="1366"/>
      <point x="400" y="1184"/>
      <point x="351" y="990" type="curve" smooth="yes"/>
      <point x="212" y="431" type="line" smooth="yes"/>
      <point x="164" y="237"/>
      <point x="124" y="79"/>
      <point x="90" y="0" type="curve"/>
      <point x="405" y="0" type="line"/>
      <point x="410" y="77"/>
      <point x="448" y="235"/>
      <point x="497" y="431" type="curve" smooth="yes"/>
    </contour>
    <contour>
      <point x="696" y="1228" type="line"/>
      <point x="752" y="1231"/>
      <point x="781" y="1233"/>
      <point x="849" y="1233" type="curve" smooth="yes"/>
      <point x="1020" y="1233"/>
      <point x="1103" y="1135"/>
      <point x="1103" y="1020" type="curve" smooth="yes"/>
      <point x="1103" y="827"/>
      <point x="965" y="723"/>
      <point x="758" y="723" type="curve" smooth="yes"/>
      <point x="696" y="723"/>
      <point x="614" y="726"/>
      <point x="572" y="733" type="curve"/>
    </contour>
  </outline>
</glyph>
<glyph name="LtnCapQ" format="2">
  <advance width="1488"/>
  <unicode hex="0051"/>
  <anchor x="619" y="-270" name="L"/>
  <anchor x="1069" y="1530" name="U"/>
  <outline>
    <contour>
      <point x="1527" y="922" type="curve" smooth="yes"/>
      <point x="1527" y="1259"/>
      <point x="1324" y="1470"/>
      <point x="1029" y="1470" type="curve" smooth="yes"/>
      <point x="663" y="1470"/>
      <point x="339" y="1229"/>
      <point x="221" y="755" type="curve" smooth="yes"/>
      <point x="201" y="673"/>
      <point x="191" y="597"/>
      <point x="191" y="526" type="curve" smooth="yes"/>
      <point x="191" y="185"/>
      <point x="410" y="-25"/>
      <point x="696" y="-25" type="curve" smooth="yes"/>
      <point x="743" y="-25"/>
      <point x="787" y="-23"/>
      <point x="838" y="-15" type="curve"/>
      <point x="907" y="-15"/>
      <point x="1162" y="-221"/>
      <point x="1246" y="-221" type="curve" smooth="yes"/>
      <point x="1310" y="-221"/>
      <point x="1422" y="-74"/>
      <point x="1468" y="-22" type="curve"/>
      <point x="1331" y="-6"/>
      <point x="1227" y="60"/>
      <point x="1115" y="134" type="curve"/>
      <point x="1312" y="242"/>
      <point x="1527" y="566"/>
    </contour>
    <contour>
      <point x="757" y="218" type="curve" smooth="yes"/>
      <point x="563" y="218"/>
      <point x="471" y="355"/>
      <point x="471" y="558" type="curve" smooth="yes"/>
      <point x="471" y="912"/>
      <point x="677" y="1228"/>
      <point x="969" y="1228" type="curve" smooth="yes"/>
      <point x="1147" y="1228"/>
      <point x="1246" y="1106"/>
      <point x="1246" y="891" type="curve" smooth="yes"/>
      <point x="1246" y="560"/>
      <point x="1053" y="218"/>
    </contour>
  </outline>
</glyph>
<glyph name="LtnCapX" format="2">
  <advance width="1345"/>
  <unicode hex="0058"/>
  <anchor x="585" y="-100" name="L"/>
  <anchor x="992" y="1530" name="U"/>
  <outline>
    <contour>
      <point x="930" y="0" type="line"/>
      <point x="1240" y="0" type="line"/>
      <point x="1199" y="81"/>
      <point x="1172" y="125"/>
      <point x="1096" y="333" type="curve" smooth="yes"/>
      <point x="690" y="1445" type="line"/>
      <point x="375" y="1445" type="line"/>
      <point x="418" y="1362"/>
      <point x="454" y="1304"/>
      <point x="529" y="1099" type="curve" smooth="yes"/>
    </contour>
    <contour>
      <point x="768" y="938" type="line"/>
      <point x="269" y="337" type="line" smooth="yes"/>
      <point x="94" y="126"/>
      <point x="44" y="85"/>
      <point x="-40" y="0" type="curve"/>
      <point x="290" y="0" type="line"/>
      <point x="790" y="603" type="line"/>
    </contour>
    <contour>
      <point x="830" y="603" type="line"/>
      <point x="1251" y="1099" type="line" smooth="yes"/>
      <point x="1423" y="1302"/>
      <point x="1492" y="1369"/>
      <point x="1575" y="1445" type="curve"/>
      <point x="1240" y="1445" type="line"/>
      <point x="808" y="938" type="line"/>
    </contour>
  </outline>
</glyph>
<glyph name="CircumAccent" format="2">
  <advance width="860"/>
  <unicode hex="005E"/>
  <anchor x="788" y="1635" name="U"/>
  <outline>
    <contour>
      <point x="1056" y="1188" type="line"/>
      <point x="845" y="1584" type="line"/>
      <point x="545" y="1584" type="line"/>
      <point x="177" y="1188" type="line"/>
      <point x="417" y="1188" type="line"/>
      <point x="674" y="1416" type="line"/>
      <point x="817" y="1188" type="line"/>
    </contour>
  </outline>
</glyph>
<glyph name="GraveAccent" format="2">
  <advance width="620"/>
  <unicode hex="0060"/>
  <anchor x="848" y="1635" name="U"/>
  <outline>
    <contour>
      <point x="265" y="1584" type="line"/>
      <point x="587" y="1188" type="line"/>
      <point x="817" y="1188" type="line"/>
      <point x="595" y="1584" type="line"/>
    </contour>
  </outline>
</glyph>
<glyph name="LtnSmC" format="2">
  <advance width="1019"/>
  <unicode hex="0063"/>
  <anchor x="495" y="0" name="H"/>
  <anchor x="490" y="-100" name="L"/>
  <anchor x="1210" y="1000" name="R"/>
  <anchor x="790" y="1100" name="U"/>
  <outline>
    <contour>
      <point x="1099" y="959" type="line"/>
      <point x="1035" y="997"/>
      <point x="928" y="1030"/>
      <point x="796" y="1030" type="curve" smooth="yes"/>
      <point x="446" y="1030"/>
      <point x="150" y="774"/>
      <point x="150" y="386" type="curve" smooth="yes"/>
      <point x="150" y="137"/>
      <point x="341" y="-25"/>
      <point x="569" y="-25" type="curve" smooth="yes"/>
      <point x="718" y="-25"/>
      <point x="835" y="11"/>
      <point x="927" y="69" type="curve"/>
      <point x="937" y="311" type="line"/>
      <point x="840" y="238"/>
      <point x="755" y="203"/>
      <point x="625" y="203" type="curve" smooth="yes"/>
      <point x="494" y="203"/>
      <point x="417" y="302"/>
      <point x="417" y="416" type="curve" smooth="yes"/>
      <point x="417" y="661"/>
      <point x="588" y="802"/>
      <point x="754" y="802" type="curve" smooth="yes"/>
      <point x="857" y="802"/>
      <point x="918" y="781"/>
      <point x="993" y="720" type="curve"/>
    </contour>
  </outline>
</glyph>
<glyph name="LtnSmD" format="2">
  <advance width="1265"/>
  <unicode hex="0064"/>
  <anchor x="535" y="0" name="H"/>
  <anchor x="540" y="-100" name="L"/>
  <anchor x="1475" y="1000" name="R"/>
  <anchor x="958" y="1635" name="U"/>
  <outline>
    <contour>
      <point x="913" y="558" type="line"/>
      <point x="861" y="438"/>
      <point x="666" y="200"/>
      <point x="560" y="200" type="curve" smooth="yes"/>
      <point x="470" y="200"/>
      <point x="427" y="263"/>
      <point x="427" y="367" type="curve" smooth="yes"/>
      <point x="427" y="480"/>
      <point x="469" y="626"/>
      <point x="554" y="714" type="curve" smooth="yes"/>
      <point x="599" y="761"/>
      <point x="657" y="792"/>
      <point x="727" y="792" type="curve" smooth="yes"/>
      <point x="820" y="792"/>
      <point x="876" y="775"/>
      <point x="957" y="731" type="curve"/>
    </contour>
    <contour>
      <point x="1144" y="1585" type="line"/>
      <point x="1144" y="1471"/>
      <point x="1116" y="1327"/>
      <point x="1079" y="1175" type="curve" smooth="yes"/>
      <point x="1020" y="935" type="line"/>
      <point x="949" y="989"/>
      <point x="845" y="1030"/>
      <point x="756" y="1030" type="curve" smooth="yes"/>
      <point x="630" y="1030"/>
      <point x="518" y="987"/>
      <point x="426" y="917" type="curve" smooth="yes"/>
      <point x="250" y="784"/>
      <point x="145" y="553"/>
      <point x="145" y="341" type="curve" smooth="yes"/>
      <point x="145" y="130"/>
      <point x="258" y="-25"/>
      <point x="448" y="-25" type="curve" smooth="yes"/>
      <point x="597" y="-25"/>
      <point x="785" y="145"/>
      <point x="867" y="267" type="curve"/>
      <point x="855" y="181"/>
      <point x="855" y="72"/>
      <point x="855" y="0" type="curve"/>
      <point x="1130" y="0" type="line"/>
      <point x="1126" y="23"/>
      <point x="1125" y="63"/>
      <point x="1125" y="100" type="curve" smooth="yes"/>
      <point x="1125" y="200"/>
      <point x="1142" y="340"/>
      <point x="1185" y="520" type="curve" smooth="yes"/>
      <point x="1345" y="1190" type="line" smooth="yes"/>
      <point x="1387" y="1366"/>
      <point x="1415" y="1490"/>
      <point x="1415" y="1585" type="curve"/>
    </contour>
  </outline>
</glyph>
<glyph name="LtnSmG" format="2">
  <advance width="1120"/>
  <unicode hex="0067"/>
  <anchor x="420" y="-465" name="H"/>
  <anchor x="403" y="-535" name="L"/>
  <anchor x="1360" y="1000" name="R"/>
  <anchor x="782" y="1100" name="U"/>
  <outline>
    <contour>
      <point x="1027" y="-117" type="curve" smooth="yes"/>
      <point x="1027" y="8"/>
      <point x="938" y="114"/>
      <point x="702" y="163" type="curve" smooth="yes"/>
      <point x="473" y="210"/>
      <point x="402" y="217"/>
      <point x="402" y="249" type="curve" smooth="yes"/>
      <point x="402" y="279"/>
      <point x="493" y="321"/>
      <point x="584" y="346" type="curve"/>
      <point x="359" y="391" type="line"/>
      <point x="263" y="354"/>
      <point x="161" y="283"/>
      <point x="161" y="188" type="curve" smooth="yes"/>
      <point x="161" y="101"/>
      <point x="230" y="4"/>
      <point x="451" y="-23" type="curve" smooth="yes"/>
      <point x="669" y="-50"/>
      <point x="740" y="-97"/>
      <point x="740" y="-157" type="curve" smooth="yes"/>
      <point x="740" y="-245"/>
      <point x="591" y="-299"/>
      <point x="457" y="-299" type="curve" smooth="yes"/>
      <point x="286" y="-299"/>
      <point x="197" y="-233"/>
      <point x="197" y="-180" type="curve" smooth="yes"/>
      <point x="197" y="-74"/>
      <point x="405" y="-4"/>
      <point x="476" y="20" type="curve"/>
      <point x="476" y="49"/>
      <point x="250" y="74"/>
      <point x="250" y="74" type="curve"/>
      <point x="103" y="20"/>
      <point x="-91" y="-65"/>
      <point x="-91" y="-233" type="curve" smooth="yes"/>
      <point x="-91" y="-409"/>
      <point x="166" y="-500"/>
      <point x="392" y="-500" type="curve" smooth="yes"/>
      <point x="690" y="-500"/>
      <point x="1027" y="-380"/>
    </contour>
    <contour>
      <point x="1268" y="1030" type="line"/>
      <point x="1168" y="1023"/>
      <point x="1027" y="987"/>
      <point x="924" y="931" type="curve"/>
      <point x="946" y="762" type="line"/>
      <point x="1048" y="800"/>
      <point x="1132" y="815"/>
      <point x="1205" y="817" type="curve"/>
    </contour>
    <contour>
      <point x="198" y="627" type="curve" smooth="yes"/>
      <point x="198" y="450"/>
      <point x="353" y="302"/>
      <point x="572" y="302" type="curve" smooth="yes"/>
      <point x="824" y="302"/>
      <point x="1087" y="444"/>
      <point x="1087" y="702" type="curve" smooth="yes"/>
      <point x="1087" y="874"/>
      <point x="955" y="1030"/>
      <point x="703" y="1030" type="curve" smooth="yes"/>
      <point x="454" y="1030"/>
      <point x="198" y="881"/>
    </contour>
    <contour>
      <point x="663" y="829" type="curve" smooth="yes"/>
      <point x="761" y="829"/>
      <point x="842" y="762"/>
      <point x="842" y="675" type="curve" smooth="yes"/>
      <point x="842" y="559"/>
      <point x="733" y="496"/>
      <point x="620" y="496" type="curve" smooth="yes"/>
      <point x="524" y="496"/>
      <point x="450" y="569"/>
      <point x="450" y="653" type="curve" smooth="yes"/>
      <point x="450" y="769"/>
      <point x="560" y="829"/>
    </contour>
  </outline>
</glyph>
<glyph name="LtnSmH" format="2">
  <advance width="1273"/>
  <unicode hex="0068"/>
  <anchor x="220" y="0" name="H"/>
  <anchor x="635" y="-100" name="L"/>
  <anchor x="968" y="1635" name="U"/>
  <outline>
    <contour>
      <point x="1140" y="0" type="line"/>
      <point x="1135" y="29"/>
      <point x="1129" y="60"/>
      <point x="1129" y="90" type="curve" smooth="yes"/>
      <point x="1129" y="135"/>
      <point x="1134" y="170"/>
      <point x="1141" y="215" type="curve" smooth="yes"/>
      <point x="1171" y="400"/>
      <point x="1253" y="590"/>
      <point x="1253" y="725" type="curve" smooth="yes"/>
      <point x="1253" y="900"/>
      <point x="1183" y="1030"/>
      <point x="990" y="1030" type="curve" smooth="yes"/>
      <point x="849" y="1030"/>
      <point x="694" y="902"/>
      <point x="566" y="740" type="curve"/>
      <point x="656" y="1095" type="line" smooth="yes"/>
      <point x="696" y="1255"/>
      <point x="735" y="1474"/>
      <point x="735" y="1585" type="curve"/>
      <point x="455" y="1585" type="line"/>
      <point x="455" y="1439"/>
      <point x="413" y="1242"/>
      <point x="377" y="1095" type="curve" smooth="yes"/>
      <point x="105" y="0" type="line"/>
      <point x="385" y="0" type="line"/>
      <point x="485" y="400" type="line"/>
      <point x="580" y="596"/>
      <point x="745" y="787"/>
      <point x="850" y="787" type="curve" smooth="yes"/>
      <point x="937" y="787"/>
      <point x="953" y="722"/>
      <point x="953" y="625" type="curve" smooth="yes"/>
      <point x="953" y="529"/>
      <point x="889" y="374"/>
      <point x="863" y="213" type="curve" smooth="yes"/>
      <point x="857" y="174"/>
      <point x="853" y="134"/>
      <point x="853" y="95" type="curve" smooth="yes"/>
      <point x="853" y="63"/>
      <point x="854" y="31"/>
      <point x="860" y="0" type="curve"/>
    </contour>
  </outline>
</glyph>
<glyph name="LtnSmL" format="2">
  <advance width="641"/>
  <unicode hex="006C"/>
  <anchor x="275" y="0" name="H"/>
  <anchor x="350" y="-100" name="L"/>
  <anchor x="850" y="1000" name="R"/>
  <anchor x="630" y="1635" name="U"/>
  <outline>
    <contour>
      <point x="461" y="1585" type="line"/>
      <point x="461" y="1439"/>
      <point x="420" y="1242"/>
      <point x="383" y="1095" type="curve" smooth="yes"/>
      <point x="232" y="488" type="line" smooth="yes"/>
      <point x="208" y="394"/>
      <point x="175" y="269"/>
      <point x="175" y="116" type="curve" smooth="yes"/>
      <point x="175" y="89"/>
      <point x="178" y="30"/>
      <point x="180" y="0" type="curve"/>
      <point x="470" y="0" type="line"/>
      <point x="464" y="39"/>
      <point x="461" y="80"/>
      <point x="461" y="121" type="curve" smooth="yes"/>
      <point x="461" y="277"/>
      <point x="498" y="434"/>
      <point x="518" y="515" type="curve" smooth="yes"/>
      <point x="662" y="1095" type="line" smooth="yes"/>
      <point x="702" y="1255"/>
      <point x="741" y="1474"/>
      <point x="741" y="1585" type="curve"/>
    </contour>
  </outline>
</glyph>
<glyph name="LtnSmN" format="2">
  <advance width="1281"/>
  <unicode hex="006E"/>
  <anchor x="560" y="0" name="H"/>
  <anchor x="635" y="-100" name="L"/>
  <anchor x="835" y="1100" name="U"/>
  <outline>
    <contour>
      <point x="1145" y="0" type="line"/>
      <point x="1140" y="29"/>
      <point x="1138" y="60"/>
      <point x="1138" y="90" type="curve" smooth="yes"/>
      <point x="1138" y="136"/>
      <point x="1141" y="182"/>
      <point x="1149" y="228" type="curve" smooth="yes"/>
      <point x="1173" y="366"/>
      <point x="1258" y="591"/>
      <point x="1258" y="725" type="curve" smooth="yes"/>
      <point x="1258" y="890"/>
      <point x="1188" y="1030"/>
      <point x="995" y="1030" type="curve" smooth="yes"/>
      <point x="844" y="1030"/>
      <point x="685" y="903"/>
      <point x="546" y="715" type="curve"/>
      <point x="555" y="771"/>
      <point x="569" y="875"/>
      <point x="569" y="933" type="curve" smooth="yes"/>
      <point x="569" y="962"/>
      <point x="568" y="988"/>
      <point x="565" y="1010" type="curve"/>
      <point x="290" y="1010" type="line"/>
      <point x="290" y="962" type="line" smooth="yes"/>
      <point x="290" y="859"/>
      <point x="280" y="685"/>
      <point x="261" y="609" type="curve" smooth="yes"/>
      <point x="110" y="0" type="line"/>
      <point x="388" y="0" type="line"/>
      <point x="490" y="405" type="line"/>
      <point x="569" y="569"/>
      <point x="740" y="787"/>
      <point x="835" y="787" type="curve" smooth="yes"/>
      <point x="922" y="787"/>
      <point x="958" y="732"/>
      <point x="958" y="625" type="curve" smooth="yes"/>
      <point x="958" y="527"/>
      <point x="891" y="369"/>
      <point x="866" y="205" type="curve" smooth="yes"/>
      <point x="860" y="168"/>
      <point x="857" y="132"/>
      <point x="857" y="95" type="curve" smooth="yes"/>
      <point x="857" y="63"/>
      <point x="859" y="31"/>
      <point x="865" y="0" type="curve"/>
    </contour>
  </outline>
</glyph>
<glyph name="LtnSmO" format="2">
  <advance width="1139"/>
  <unicode hex="006F"/>
  <anchor x="518" y="0" name="H"/>
  <anchor x="530" y="-100" name="L"/>
  <anchor x="730" y="0" name="O"/>
  <anchor x="1350" y="1000" name="R"/>
  <anchor x="795" y="1100" name="U"/>
  <outline>
    <contour>
      <point x="140" y="370" type="curve" smooth="yes"/>
      <point x="140" y="128"/>
      <point x="289" y="-25"/>
      <point x="520" y="-25" type="curve" smooth="yes"/>
      <point x="906" y="-25"/>
      <point x="1144" y="295"/>
      <point x="1144" y="641" type="curve" smooth="yes"/>
      <point x="1144" y="880"/>
      <point x="1003" y="1030"/>
      <point x="773" y="1030" type="curve" smooth="yes"/>
      <point x="390" y="1030"/>
      <point x="140" y="718"/>
    </contour>
    <contour>
      <point x="718" y="807" type="curve" smooth="yes"/>
      <point x="826" y="807"/>
      <point x="879" y="737"/>
      <point x="879" y="612" type="curve" smooth="yes"/>
      <point x="879" y="413"/>
      <point x="764" y="198"/>
      <point x="566" y="198" type="curve" smooth="yes"/>
      <point x="464" y="198"/>
      <point x="404" y="264"/>
      <point x="404" y="385" type="curve" smooth="yes"/>
      <point x="404" y="570"/>
      <point x="512" y="807"/>
    </contour>
  </outline>
</glyph>
<glyph name="LtnSmQ" format="2">
  <advance width="1206"/>
  <unicode hex="0071"/>
  <anchor x="415" y="-500" name="L"/>
  <anchor x="1400" y="1000" name="R"/>
  <anchor x="815" y="1100" name="U"/>
  <outline>
    <contour>
      <point x="889" y="583" type="line"/>
      <point x="832" y="467"/>
      <point x="615" y="211"/>
      <point x="520" y="211" type="curve" smooth="yes"/>
      <point x="457" y="211"/>
      <point x="429" y="263"/>
      <point x="429" y="362" type="curve" smooth="yes"/>
      <point x="429" y="484"/>
      <point x="469" y="616"/>
      <point x="551" y="702" type="curve" smooth="yes"/>
      <point x="605" y="758"/>
      <point x="676" y="794"/>
      <point x="765" y="794" type="curve" smooth="yes"/>
      <point x="806" y="794"/>
      <point x="897" y="781"/>
      <point x="933" y="762" type="curve"/>
    </contour>
    <contour>
      <point x="936" y="-485" type="line"/>
      <point x="936" y="-396"/>
      <point x="951" y="-299"/>
      <point x="978" y="-190" type="curve" smooth="yes"/>
      <point x="1261" y="955" type="line"/>
      <point x="1134" y="991"/>
      <point x="972" y="1030"/>
      <point x="819" y="1030" type="curve" smooth="yes"/>
      <point x="678" y="1030"/>
      <point x="516" y="969"/>
      <point x="403" y="874" type="curve" smooth="yes"/>
      <point x="244" y="739"/>
      <point x="145" y="535"/>
      <point x="145" y="331" type="curve" smooth="yes"/>
      <point x="145" y="105"/>
      <point x="275" y="-25"/>
      <point x="391" y="-25" type="curve" smooth="yes"/>
      <point x="529" y="-25"/>
      <point x="729" y="134"/>
      <point x="838" y="300" type="curve"/>
      <point x="706" y="-185" type="line" smooth="yes"/>
      <point x="675" y="-299"/>
      <point x="661" y="-419"/>
      <point x="661" y="-485" type="curve"/>
    </contour>
  </outline>
</glyph>
<glyph name="LtnSmW" format="2">
  <advance width="1620"/>
  <unicode hex="0077"/>
  <anchor x="700" y="-100" name="L"/>
  <anchor x="1000" y="1100" name="U"/>
  <outline>
    <contour>
      <point x="850" y="1010" type="line"/>
      <point x="758" y="793"/>
      <point x="592" y="496"/>
      <point x="438" y="242" type="curve"/>
      <point x="459" y="351"/>
      <point x="476" y="509"/>
      <point x="476" y="669" type="curve" smooth="yes"/>
      <point x="476" y="788"/>
      <point x="468" y="908"/>
      <point x="448" y="1010" type="curve"/>
      <point x="190" y="1010" type="line"/>
      <point x="230" y="831"/>
      <point x="236" y="678"/>
      <point x="236" y="494" type="curve" smooth="yes"/>
      <point x="236" y="364"/>
      <point x="228" y="211"/>
      <point x="209" y="0" type="curve"/>
      <point x="499" y="0" type="line"/>
      <point x="624" y="181"/>
      <point x="838" y="560"/>
      <point x="901" y="690" type="curve"/>
      <point x="919" y="477"/>
      <point x="919" y="212"/>
      <point x="919" y="0" type="curve"/>
      <point x="1179" y="0" type="line"/>
      <point x="1430" y="328"/>
      <point x="1710" y="775"/>
      <point x="1710" y="1010" type="curve"/>
      <point x="1432" y="1010" type="line"/>
      <point x="1432" y="995" type="line" smooth="yes"/>
      <point x="1432" y="797"/>
      <point x="1245" y="435"/>
      <point x="1106" y="242" type="curve"/>
      <point x="1108" y="298"/>
      <point x="1108" y="355"/>
      <point x="1108" y="411" type="curve" smooth="yes"/>
      <point x="1108" y="637"/>
      <point x="1096" y="860"/>
      <point x="1070" y="1010" type="curve"/>
    </contour>
  </outline>
</glyph>
<glyph name="LftCurlyBrac" format="2">
  <advance width="1020"/>
  <unicode hex="007B"/>
  <outline>
    <contour>
      <point x="790" y="-177" type="line"/>
      <point x="717" y="-149"/>
      <point x="597" y="-129"/>
      <point x="597" y="-79" type="curve" smooth="yes"/>
      <point x="597" y="16"/>
      <point x="695" y="378"/>
      <point x="695" y="435" type="curve" smooth="yes"/>
      <point x="695" y="476"/>
      <point x="574" y="568"/>
      <point x="574" y="605" type="curve" smooth="yes"/>
      <point x="574" y="644"/>
      <point x="742" y="733"/>
      <point x="776" y="777" type="curve" smooth="yes"/>
      <point x="803" y="812"/>
      <point x="908" y="1276"/>
      <point x="953" y="1317" type="curve" smooth="yes"/>
      <point x="975" y="1337"/>
      <point x="1090" y="1376"/>
      <point x="1157" y="1395" type="curve"/>
      <point x="1165" y="1624" type="line"/>
      <point x="1031" y="1597"/>
      <point x="827" y="1546"/>
      <point x="768" y="1500" type="curve" smooth="yes"/>
      <point x="677" y="1428"/>
      <point x="542" y="843"/>
      <point x="512" y="812" type="curve" smooth="yes"/>
      <point x="472" y="770"/>
      <point x="260" y="659"/>
      <point x="260" y="601" type="curve" smooth="yes"/>
      <point x="260" y="540"/>
      <point x="412" y="434"/>
      <point x="412" y="399" type="curve" smooth="yes"/>
      <point x="412" y="337"/>
      <point x="311" y="-52"/>
      <point x="311" y="-216" type="curve" smooth="yes"/>
      <point x="311" y="-248"/>
      <point x="315" y="-271"/>
      <point x="324" y="-282" type="curve" smooth="yes"/>
      <point x="362" y="-330"/>
      <point x="554" y="-379"/>
      <point x="683" y="-406" type="curve"/>
    </contour>
  </outline>
</glyph>
<glyph name="VertLine" format="2">
  <advance width="670"/>
  <unicode hex="007C"/>
  <outline>
    <contour>
      <point x="574" y="1594" type="line"/>
      <point x="83" y="-396" type="line"/>
      <point x="293" y="-396" type="line"/>
      <point x="784" y="1594" type="line"/>
    </contour>
  </outline>
</glyph>
<glyph name="CombDiaer" format="2">
  <unicode hex="0308"/>
  <anchor x="-243" y="1585" name="U"/>
  <anchor x="-365" y="1100" name="_U"/>
  <outline>
    <contour>
      <point x="-233" y="1338" type="curve" smooth="yes"/>
      <point x="-233" y="1256"/>
      <point x="-172" y="1198"/>
      <point x="-86" y="1198" type="curve" smooth="yes"/>
      <point x="32" y="1198"/>
      <point x="126" y="1294"/>
      <point x="126" y="1404" type="curve" smooth="yes"/>
      <point x="126" y="1484"/>
      <point x="66" y="1544"/>
      <point x="-21" y="1544" type="curve" smooth="yes"/>
      <point x="-139" y="1544"/>
      <point x="-233" y="1447"/>
    </contour>
    <contour>
      <point x="-723" y="1338" type="curve" smooth="yes"/>
      <point x="-723" y="1256"/>
      <point x="-662" y="1198"/>
      <point x="-576" y="1198" type="curve" smooth="yes"/>
      <point x="-457" y="1198"/>
      <point x="-363" y="1293"/>
      <point x="-363" y="1404" type="curve" smooth="yes"/>
      <point x="-363" y="1484"/>
      <point x="-423" y="1544"/>
      <point x="-510" y="1544" type="curve" smooth="yes"/>
      <point x="-628" y="1544"/>
      <point x="-723" y="1448"/>
    </contour>
  </outline>
</glyph>
<glyph name="CombRingAbv" format="2">
  <unicode hex="030A"/>
  <anchor x="-221" y="1635" name="U"/>
  <anchor x="-357" y="1100" name="_U"/>
  <outline>
    <contour>
      <point x="-358" y="1292" type="curve" smooth="yes"/>
      <point x="-406" y="1292"/>
      <point x="-442" y="1330"/>
      <point x="-442" y="1375" type="curve" smooth="yes"/>
      <point x="-442" y="1440"/>
      <point x="-385" y="1480"/>
      <point x="-331" y="1480" type="curve" smooth="yes"/>
      <point x="-283" y="1480"/>
      <point x="-247" y="1443"/>
      <point x="-247" y="1398" type="curve" smooth="yes"/>
      <point x="-247" y="1335"/>
      <point x="-301" y="1292"/>
    </contour>
    <contour>
      <point x="-598" y="1348" type="curve" smooth="yes"/>
      <point x="-598" y="1238"/>
      <point x="-504" y="1148"/>
      <point x="-384" y="1148" type="curve" smooth="yes"/>
      <point x="-223" y="1148"/>
      <point x="-92" y="1271"/>
      <point x="-92" y="1424" type="curve" smooth="yes"/>
      <point x="-92" y="1534"/>
      <point x="-186" y="1624"/>
      <point x="-306" y="1624" type="curve" smooth="yes"/>
      <point x="-467" y="1624"/>
      <point x="-598" y="1501"/>
    </contour>
  </outline>
</glyph>
